<svg class="euiIcon euiIcon--xLarge" xmlns="http://www.w3.org/2000/svg" width="32" height="32" viewBox="0 0 32 32"><g fill="none" fill-rule="evenodd"><path fill="#FFF" d="M5 2a2 2 0 0 1 2 2v24a2 2 0 1 1-4 0V4a2 2 0 0 1 2-2zm0 10a2 2 0 1 0 0-4 2 2 0 0 0 0 4z"></path><path fill="#FFF" d="M27 2a2 2 0 0 1 2 2v24a2 2 0 1 1-4 0V4a2 2 0 0 1 2-2zm0 16a2 2 0 1 0 0-4 2 2 0 0 0 0 4z"></path><path fill="#FFF" d="M16 2a2 2 0 0 1 2 2v24a2 2 0 1 1-4 0V4a2 2 0 0 1 2-2zm0 22a2 2 0 1 0 0-4 2 2 0 0 0 0 4z"></path><path fill="#FFF" fill-rule="nonzero" d="M5 14a4 4 0 1 1 0-8 4 4 0 0 1 0 8zm0-2a2 2 0 1 0 0-4 2 2 0 0 0 0 4z"></path><path fill="#FFF" fill-rule="nonzero" d="M16 26a4 4 0 1 1 0-8 4 4 0 0 1 0 8zm0-2a2 2 0 1 0 0-4 2 2 0 0 0 0 4z"></path><path fill="#FFF" fill-rule="nonzero" d="M27 20a4 4 0 1 1 0-8 4 4 0 0 1 0 8zm0-2a2 2 0 1 0 0-4 2 2 0 0 0 0 4z"></path></g></svg>
