<?xml version="1.0" encoding="UTF-8" standalone="no"?>
<svg
   xmlns:dc="http://purl.org/dc/elements/1.1/"
   xmlns:cc="http://creativecommons.org/ns#"
   xmlns:rdf="http://www.w3.org/1999/02/22-rdf-syntax-ns#"
   xmlns:svg="http://www.w3.org/2000/svg"
   xmlns="http://www.w3.org/2000/svg"
   xmlns:sodipodi="http://sodipodi.sourceforge.net/DTD/sodipodi-0.dtd"
   xmlns:inkscape="http://www.inkscape.org/namespaces/inkscape"
   width="32"
   height="32"
   viewBox="0 0 32 32"
   version="1.1"
   id="svg4684"
   sodipodi:docname="action_timepicker.svg"
   inkscape:version="0.92.2 5c3e80d, 2017-08-06">
  <metadata
     id="metadata4690">
    <rdf:RDF>
      <cc:Work
         rdf:about="">
        <dc:format>image/svg+xml</dc:format>
        <dc:type
           rdf:resource="http://purl.org/dc/dcmitype/StillImage" />
        <dc:title></dc:title>
      </cc:Work>
    </rdf:RDF>
  </metadata>
  <defs
     id="defs4688" />
  <sodipodi:namedview
     pagecolor="#ffffff"
     bordercolor="#666666"
     borderopacity="1"
     objecttolerance="10"
     gridtolerance="10"
     guidetolerance="10"
     inkscape:pageopacity="0"
     inkscape:pageshadow="2"
     inkscape:window-width="2560"
     inkscape:window-height="1386"
     id="namedview4686"
     showgrid="false"
     inkscape:zoom="50.469746"
     inkscape:cx="15.422203"
     inkscape:cy="17.159406"
     inkscape:window-x="0"
     inkscape:window-y="54"
     inkscape:window-maximized="1"
     inkscape:current-layer="g4682" />
  <g
     fill="none"
     fill-rule="evenodd"
     id="g4682">
    <path
       d="m 16.7227,17.190154 -3.519006,2.097709 c -0.319152,0.191134 -0.681771,-0.171485 -0.490637,-0.490636 l 2.097709,-3.519007 c 0.464438,-0.780017 1.539789,-0.913394 2.181665,-0.271517 l 0.0018,0.0018 c 0.641877,0.641876 0.5085,1.717228 -0.271517,2.181665"
       style="mix-blend-mode:multiply;fill:#14a7df;stroke-width:0.59543258"
       id="path4674"
       inkscape:connector-curvature="0" />
    <path
       d="M 14.619869,16.145262 12.921615,9.8335375 C 12.880665,9.46379 13.361311,9.2850065 13.571947,9.5916364 l 3.582167,5.6109776 c 0.515927,0.746959 0.189612,1.780249 -0.661188,2.096715 l -0.0024,8.87e-4 c -0.850799,0.316468 -1.773059,-0.252397 -1.870689,-1.154947"
       style="mix-blend-mode:multiply;fill:#00bfb3;stroke-width:0.59543258"
       id="path4676"
       inkscape:connector-curvature="0"
       sodipodi:nodetypes="ccccssc"
       inkscape:transform-center-x="0.81488539"
       inkscape:transform-center-y="-2.7260522" />
    <path
       d="M 17.509089,4.7193604 C 17.201559,6.0376772 16.5865,8.674311 16.5865,8.674311 c -0.145,0.62 -1.027,0.62 -1.172,0 L 14.484777,4.6887782 c -0.217759,-0.933489 3.244449,-0.9131009 3.024312,0.030582 z"
       id="path4706"
       style="fill:#00bfb3;fill-opacity:1"
       inkscape:connector-curvature="0" />
    <path
       d="M 14.574751,27.096555 15.4145,23.49672 c 0.145,-0.62 1.027,-0.62 1.172,0 0,0 0.600865,2.575786 0.901297,3.863678 0.227234,0.974108 -3.160796,0.798212 -2.913046,-0.263843 z"
       id="path4704"
       style="fill:#00bfb3;fill-opacity:1"
       inkscape:connector-curvature="0" />
    <path
       d="m 4.621527,14.455303 c 1.370627,0.319732 4.111882,0.959197 4.111882,0.959197 0.62,0.145 0.62,1.027 0,1.172 0,0 -2.653289,0.618944 -3.979933,0.928417 -0.935355,0.218194 -1.023322,-3.267548 -0.131949,-3.059614 z"
       id="path4702"
       style="fill:#00bfb3;fill-opacity:1"
       inkscape:connector-curvature="0" />
    <path
       d="m 27.473842,14.420276 c 0.84132,-0.196259 0.630532,3.307536 -0.316182,3.086691 -1.315286,-0.306822 -3.945857,-0.920467 -3.945857,-0.920467 -0.62,-0.145 -0.62,-1.027 0,-1.172 0,0 2.841359,-0.662816 4.262039,-0.994224 z"
       id="path4678"
       style="fill:#00bfb3;fill-opacity:1"
       inkscape:connector-curvature="0" />
    <path
       fill="#00A9E5"
       d="M16.0005,26.0005 C10.4771667,26.0005 6.0005,21.5238333 6.0005,16.0005 C6.0005,10.4771667 10.4771667,6.0005 16.0005,6.0005 C21.5238333,6.0005 26.0005,10.4771667 26.0005,16.0005 C26.0005,21.5238333 21.5238333,26.0005 16.0005,26.0005 M16.0005,3.0005 C8.82125,3.0005 3.0005,8.82125 3.0005,16.0005 C3.0005,23.17975 8.82125,29.0005 16.0005,29.0005 C23.17975,29.0005 29.0005,23.17975 29.0005,16.0005 C29.0005,8.82125 23.17975,3.0005 16.0005,3.0005"
       id="path4680" />
  </g>
</svg>
